<svg xmlns="http://www.w3.org/2000/svg" viewBox="0 0 622.3 551.3">
  <defs>
    <style>
      .cls-1 {
        fill: #282c34;
      }

      .cls-2 {
        fill: #e2e2e2;
      }

      .cls-3 {
        font-size: 36px;
        fill: #61dafb;
        font-family: Poppins-Regular, Poppins;
      }
    </style>
  </defs>
  <g id="Layer_2" data-name="Layer 2">
    <g id="Layer_2-2" data-name="Layer 2">
      <g>
        <path class="cls-1" d="M78.1,328.5A33,33,0,0,1,49.5,312L5.9,236.5a33,33,0,0,1,0-33L49.5,128a33,33,0,0,1,28.6-16.5h87.1A33.2,33.2,0,0,1,193.9,128l43.5,75.5a33,33,0,0,1,0,33L193.9,312a33.2,33.2,0,0,1-28.7,16.5Z"/>
        <path class="cls-2" d="M165.2,113a31.7,31.7,0,0,1,27.4,15.8l43.5,75.4a31.8,31.8,0,0,1,0,31.6l-43.5,75.4A31.7,31.7,0,0,1,165.2,327H78.1a31.5,31.5,0,0,1-27.3-15.8L7.2,235.8a31.8,31.8,0,0,1,0-31.6l43.6-75.4A31.5,31.5,0,0,1,78.1,113h87.1m0-3H78.1a34.6,34.6,0,0,0-29.9,17.3L4.6,202.7a35,35,0,0,0,0,34.6l43.6,75.4A34.6,34.6,0,0,0,78.1,330h87.1a34.6,34.6,0,0,0,30-17.3l43.5-75.4a34.5,34.5,0,0,0,0-34.6l-43.5-75.4a34.6,34.6,0,0,0-30-17.3Z"/>
      </g>
      <g>
        <path class="cls-1" d="M457.1,328.5A33.2,33.2,0,0,1,428.4,312l-43.5-75.5a33,33,0,0,1,0-33L428.4,128a33.2,33.2,0,0,1,28.7-16.5h87.1A33.2,33.2,0,0,1,572.8,128l43.6,75.5a33.5,33.5,0,0,1,0,33L572.8,312a33.2,33.2,0,0,1-28.6,16.5Z"/>
        <path class="cls-2" d="M544.2,113a31.5,31.5,0,0,1,27.3,15.8l43.6,75.4a31.8,31.8,0,0,1,0,31.6l-43.6,75.4A31.5,31.5,0,0,1,544.2,327H457.1a31.5,31.5,0,0,1-27.4-15.8l-43.5-75.4a31.8,31.8,0,0,1,0-31.6l43.5-75.4A31.5,31.5,0,0,1,457.1,113h87.1m0-3H457.1a34.6,34.6,0,0,0-30,17.3l-43.5,75.4a34.5,34.5,0,0,0,0,34.6l43.5,75.4a34.6,34.6,0,0,0,30,17.3h87.1a34.6,34.6,0,0,0,29.9-17.3l43.6-75.4a35,35,0,0,0,0-34.6l-43.6-75.4A34.6,34.6,0,0,0,544.2,110Z"/>
      </g>
      <g>
        <path class="cls-1" d="M147.1,549.8a33.2,33.2,0,0,1-28.7-16.5L74.9,457.8a33,33,0,0,1,0-33l43.5-75.5a33.4,33.4,0,0,1,28.7-16.5h87.1a33.4,33.4,0,0,1,28.6,16.5l43.6,75.5a33.5,33.5,0,0,1,0,33l-43.6,75.5a33.2,33.2,0,0,1-28.6,16.5Z"/>
        <path class="cls-2" d="M234.2,334.3a31.7,31.7,0,0,1,27.3,15.8l43.6,75.4a31.8,31.8,0,0,1,0,31.6l-43.6,75.4a31.5,31.5,0,0,1-27.3,15.8H147.1a31.5,31.5,0,0,1-27.4-15.8L76.2,457.1a31.8,31.8,0,0,1,0-31.6l43.5-75.4a31.7,31.7,0,0,1,27.4-15.8h87.1m0-3H147.1a34.6,34.6,0,0,0-30,17.3L73.6,424a34.5,34.5,0,0,0,0,34.6L117.1,534a34.6,34.6,0,0,0,30,17.3h87.1A34.6,34.6,0,0,0,264.1,534l43.6-75.4a35,35,0,0,0,0-34.6l-43.6-75.4a34.6,34.6,0,0,0-29.9-17.3Z"/>
      </g>
      <g>
        <path class="cls-1" d="M391.1,546.8a33.2,33.2,0,0,1-28.7-16.5l-43.5-75.5a33,33,0,0,1,0-33l43.5-75.5a33.4,33.4,0,0,1,28.7-16.5h87.1a33.4,33.4,0,0,1,28.6,16.5l43.6,75.5a33.5,33.5,0,0,1,0,33l-43.6,75.5a33.2,33.2,0,0,1-28.6,16.5Z"/>
        <path class="cls-2" d="M478.2,331.3a31.7,31.7,0,0,1,27.3,15.8l43.6,75.4a31.8,31.8,0,0,1,0,31.6l-43.6,75.4a31.5,31.5,0,0,1-27.3,15.8H391.1a31.5,31.5,0,0,1-27.4-15.8l-43.5-75.4a31.8,31.8,0,0,1,0-31.6l43.5-75.4a31.7,31.7,0,0,1,27.4-15.8h87.1m0-3H391.1a34.6,34.6,0,0,0-30,17.3L317.6,421a34.5,34.5,0,0,0,0,34.6L361.1,531a34.6,34.6,0,0,0,30,17.3h87.1A34.6,34.6,0,0,0,508.1,531l43.6-75.4a35,35,0,0,0,0-34.6l-43.6-75.4a34.6,34.6,0,0,0-29.9-17.3Z"/>
      </g>
      <g>
        <path class="cls-1" d="M268.1,218.5A33.2,33.2,0,0,1,239.4,202l-43.5-75.5a33,33,0,0,1,0-33L239.4,18A33.2,33.2,0,0,1,268.1,1.5h87.1A33.2,33.2,0,0,1,383.8,18l43.6,75.5a33.5,33.5,0,0,1,0,33L383.8,202a33.2,33.2,0,0,1-28.6,16.5Z"/>
        <path class="cls-2" d="M355.2,3a31.5,31.5,0,0,1,27.3,15.8l43.6,75.4a31.8,31.8,0,0,1,0,31.6l-43.6,75.4A31.5,31.5,0,0,1,355.2,217H268.1a31.5,31.5,0,0,1-27.4-15.8l-43.5-75.4a31.8,31.8,0,0,1,0-31.6l43.5-75.4A31.5,31.5,0,0,1,268.1,3h87.1m0-3H268.1a34.6,34.6,0,0,0-30,17.3L194.6,92.7a34.5,34.5,0,0,0,0,34.6l43.5,75.4a34.6,34.6,0,0,0,30,17.3h87.1a34.6,34.6,0,0,0,29.9-17.3l43.6-75.4a35,35,0,0,0,0-34.6L385.1,17.3A34.6,34.6,0,0,0,355.2,0Z"/>
      </g>
      <text class="cls-3" transform="translate(232.3 100.7)">Premiere<tspan x="51.6" y="43.2">Pro</tspan></text>
      <text class="cls-3" transform="translate(40.2 236.9)">Illustrator</text>
      <text class="cls-3" transform="translate(459.1 209.9)">After<tspan x="-16.6" y="43.2">Effects</tspan></text>
      <text class="cls-3" transform="translate(338.5 450.2)">Photoshop</text>
      <text class="cls-3" transform="translate(134.2 452.2)">Figma</text>
    </g>
  </g>
</svg>
