<svg xmlns="http://www.w3.org/2000/svg" viewBox="0 0 622.3 660">
  <defs>
    <style>
      .cls-1 {
        fill: #282c34;
      }

      .cls-2 {
        fill: #e2e2e2;
      }

      .cls-3 {
        font-size: 50px;
        fill: #61dafb;
        font-family: Poppins-Regular, Poppins;
      }
    </style>
  </defs>
  <g id="Layer_2" data-name="Layer 2">
    <g id="Layer_1-2" data-name="Layer 1">
      <g>
        <path class="cls-1" d="M78.2,328.5A33.2,33.2,0,0,1,49.5,312L6,236.5a33,33,0,0,1,0-33L49.5,128a33.2,33.2,0,0,1,28.7-16.5h87.1A33,33,0,0,1,193.9,128l43.6,75.5a33,33,0,0,1,0,33L193.9,312a33,33,0,0,1-28.6,16.5Z"/>
        <path class="cls-2" d="M165.3,113a31.5,31.5,0,0,1,27.3,15.8l43.6,75.4a31.8,31.8,0,0,1,0,31.6l-43.6,75.4A31.5,31.5,0,0,1,165.3,327H78.2a31.7,31.7,0,0,1-27.4-15.8L7.3,235.8a31.8,31.8,0,0,1,0-31.6l43.5-75.4A31.7,31.7,0,0,1,78.2,113h87.1m0-3H78.2a34.6,34.6,0,0,0-30,17.3L4.7,202.7a34.5,34.5,0,0,0,0,34.6l43.5,75.4a34.6,34.6,0,0,0,30,17.3h87.1a34.6,34.6,0,0,0,29.9-17.3l43.6-75.4a35,35,0,0,0,0-34.6l-43.6-75.4A34.6,34.6,0,0,0,165.3,110Z"/>
      </g>
      <g>
        <path class="cls-1" d="M268.1,658.5A33,33,0,0,1,239.5,642l-43.6-75.5a33,33,0,0,1,0-33L239.5,458a33,33,0,0,1,28.6-16.5h87.1A33.2,33.2,0,0,1,383.9,458l43.5,75.5a33,33,0,0,1,0,33L383.9,642a33.2,33.2,0,0,1-28.7,16.5Z"/>
        <path class="cls-2" d="M355.2,443a31.7,31.7,0,0,1,27.4,15.8l43.5,75.4a31.8,31.8,0,0,1,0,31.6l-43.5,75.4A31.7,31.7,0,0,1,355.2,657H268.1a31.5,31.5,0,0,1-27.3-15.8l-43.6-75.4a31.8,31.8,0,0,1,0-31.6l43.6-75.4A31.5,31.5,0,0,1,268.1,443h87.1m0-3H268.1a34.6,34.6,0,0,0-29.9,17.3l-43.6,75.4a35,35,0,0,0,0,34.6l43.6,75.4A34.6,34.6,0,0,0,268.1,660h87.1a34.6,34.6,0,0,0,30-17.3l43.5-75.4a34.5,34.5,0,0,0,0-34.6l-43.5-75.4a34.6,34.6,0,0,0-30-17.3Z"/>
      </g>
      <g>
        <path class="cls-1" d="M457.1,328.5A33,33,0,0,1,428.5,312l-43.6-75.5a33,33,0,0,1,0-33L428.5,128a33,33,0,0,1,28.6-16.5h87.1A33.2,33.2,0,0,1,572.9,128l43.5,75.5a33,33,0,0,1,0,33L572.9,312a33.2,33.2,0,0,1-28.7,16.5Z"/>
        <path class="cls-2" d="M544.2,113a31.7,31.7,0,0,1,27.4,15.8l43.5,75.4a31.8,31.8,0,0,1,0,31.6l-43.5,75.4A31.7,31.7,0,0,1,544.2,327H457.1a31.5,31.5,0,0,1-27.3-15.8l-43.6-75.4a31.8,31.8,0,0,1,0-31.6l43.6-75.4A31.5,31.5,0,0,1,457.1,113h87.1m0-3H457.1a34.6,34.6,0,0,0-29.9,17.3l-43.6,75.4a35,35,0,0,0,0,34.6l43.6,75.4A34.6,34.6,0,0,0,457.1,330h87.1a34.6,34.6,0,0,0,30-17.3l43.5-75.4a34.5,34.5,0,0,0,0-34.6l-43.5-75.4a34.6,34.6,0,0,0-30-17.3Z"/>
      </g>
      <g>
        <path class="cls-1" d="M78.1,548.5A33,33,0,0,1,49.5,532L5.9,456.5a33,33,0,0,1,0-33L49.5,348a33,33,0,0,1,28.6-16.5h87.1A33.2,33.2,0,0,1,193.9,348l43.5,75.5a33,33,0,0,1,0,33L193.9,532a33.2,33.2,0,0,1-28.7,16.5Z"/>
        <path class="cls-2" d="M165.2,333a31.7,31.7,0,0,1,27.4,15.8l43.5,75.4a31.8,31.8,0,0,1,0,31.6l-43.5,75.4A31.7,31.7,0,0,1,165.2,547H78.1a31.5,31.5,0,0,1-27.3-15.8L7.2,455.8a31.8,31.8,0,0,1,0-31.6l43.6-75.4A31.5,31.5,0,0,1,78.1,333h87.1m0-3H78.1a34.6,34.6,0,0,0-29.9,17.3L4.6,422.7a35,35,0,0,0,0,34.6l43.6,75.4A34.6,34.6,0,0,0,78.1,550h87.1a34.6,34.6,0,0,0,30-17.3l43.5-75.4a34.5,34.5,0,0,0,0-34.6l-43.5-75.4a34.6,34.6,0,0,0-30-17.3Z"/>
      </g>
      <g>
        <path class="cls-1" d="M457.1,548.5A33,33,0,0,1,428.5,532l-43.6-75.5a33,33,0,0,1,0-33L428.5,348a33,33,0,0,1,28.6-16.5h87.1A33.2,33.2,0,0,1,572.9,348l43.5,75.5a33,33,0,0,1,0,33L572.9,532a33.2,33.2,0,0,1-28.7,16.5Z"/>
        <path class="cls-2" d="M544.2,333a31.7,31.7,0,0,1,27.4,15.8l43.5,75.4a31.8,31.8,0,0,1,0,31.6l-43.5,75.4A31.7,31.7,0,0,1,544.2,547H457.1a31.5,31.5,0,0,1-27.3-15.8l-43.6-75.4a31.8,31.8,0,0,1,0-31.6l43.6-75.4A31.5,31.5,0,0,1,457.1,333h87.1m0-3H457.1a34.6,34.6,0,0,0-29.9,17.3l-43.6,75.4a35,35,0,0,0,0,34.6l43.6,75.4A34.6,34.6,0,0,0,457.1,550h87.1a34.6,34.6,0,0,0,30-17.3l43.5-75.4a34.5,34.5,0,0,0,0-34.6l-43.5-75.4a34.6,34.6,0,0,0-30-17.3Z"/>
      </g>
      <g>
        <path class="cls-1" d="M268.1,218.5A33,33,0,0,1,239.5,202l-43.6-75.5a33,33,0,0,1,0-33L239.5,18A33,33,0,0,1,268.1,1.5h87.1A33.2,33.2,0,0,1,383.9,18l43.5,75.5a33,33,0,0,1,0,33L383.9,202a33.2,33.2,0,0,1-28.7,16.5Z"/>
        <path class="cls-2" d="M355.2,3a31.7,31.7,0,0,1,27.4,15.8l43.5,75.4a31.8,31.8,0,0,1,0,31.6l-43.5,75.4A31.7,31.7,0,0,1,355.2,217H268.1a31.5,31.5,0,0,1-27.3-15.8l-43.6-75.4a31.8,31.8,0,0,1,0-31.6l43.6-75.4A31.5,31.5,0,0,1,268.1,3h87.1m0-3H268.1a34.6,34.6,0,0,0-29.9,17.3L194.6,92.7a35,35,0,0,0,0,34.6l43.6,75.4A34.6,34.6,0,0,0,268.1,220h87.1a34.6,34.6,0,0,0,30-17.3l43.5-75.4a34.5,34.5,0,0,0,0-34.6L385.2,17.3A34.6,34.6,0,0,0,355.2,0Z"/>
      </g>
      <text class="cls-3" transform="translate(248.6 119.7)">HTML</text>
      <text class="cls-3" transform="translate(70 236.9)">CSS</text>
      <text class="cls-3" transform="translate(476.7 236.9)">JS</text>
      <text class="cls-3" transform="translate(245.7 562.9)">Node</text>
      <text class="cls-3" transform="translate(427.8 450.9)">React</text>
      <text class="cls-3" transform="translate(58.6 450.9)">Java</text>
    </g>
  </g>
</svg>
